<?xml version="1.0" encoding="utf-8"?>
<!-- Generator: Adobe Illustrator 16.0.0, SVG Export Plug-In . SVG Version: 6.00 Build 0)  -->
<!DOCTYPE svg PUBLIC "-//W3C//DTD SVG 1.1//EN" "http://www.w3.org/Graphics/SVG/1.1/DTD/svg11.dtd">
<svg version="1.1" xmlns="http://www.w3.org/2000/svg" xmlns:xlink="http://www.w3.org/1999/xlink" x="0px" y="0px" width="34.3px"
	 height="43.1px" viewBox="0 0 34.3 43.1" enable-background="new 0 0 34.3 43.1" xml:space="preserve">
<g id="Layer_1" display="none">
	<g display="inline">
		<path d="M31.5,0.2C31.9,0.1,32.3,0,32.701,0C33,0,33.3,0,33.6,0.1C33.8,0.3,34,0.7,34.1,1c0.3,0.8,0.2,1.7-0.2,2.5
			c-0.199,0.5-0.6,1-1.1,1.3c-0.2,0.2-0.5,0.3-0.7,0.4C31.8,5.3,31.5,5.4,31.201,5.4C30.5,5.5,29.8,5.7,29,5.7
			C27.9,5.8,26.9,6,25.8,6.1C25,6.2,24.3,6.2,23.5,6.3C22.6,6.4,21.701,6.5,20.8,6.5c-1,0.1-1.9,0.1-2.9,0.2C17,6.9,16.1,6.9,15.2,7
			c-1.2,0-2.5,0-3.7,0.1C10.4,7.1,9.4,7.2,8.3,7.2c-0.9,0-1.7,0-2.6,0c0,0-0.1,0-0.1,0.1c0,3.1,0,6.2,0,9.3c0,1.101,0,2.3,0,3.4
			c0,0.899,0,1.899,0,2.8c0,3.8,0,7.6,0,11.4c0,1.899,0,3.899,0,5.8c0,0.6-0.1,1.2-0.4,1.7C4.7,42.5,3.8,43.1,2.8,43
			c-0.5,0-1-0.101-1.5-0.4C0.5,42.2,0,41.3,0,40.4c0-6.3,0-12.699,0-19C0,20.5,0,19.6,0,18.7C0,14,0,9.2,0,4.5
			C0,3.9,0.2,3.3,0.6,2.8c0.5-0.6,1.2-1,1.9-1.1c0.3,0,0.6,0,0.9-0.101c2.3,0,4.6,0,6.9,0c1.5,0,3,0,4.5,0c0.9,0,1.8,0,2.6-0.1
			c1,0,2-0.101,2.9-0.101S22,1.3,22.9,1.2c1-0.101,2-0.2,3-0.301c0.801-0.1,1.7-0.199,2.5-0.3C29.4,0.5,30.5,0.4,31.5,0.2z"/>
		<path d="M31.4,10.6c0.2-0.1,0.5-0.1,0.7,0.101c0.2,0.1,0.3,0.399,0.399,0.6c0.201,0.5,0.201,1.1,0.201,1.7
			c0,0.8-0.201,1.5-0.701,2.1c-0.399,0.5-1,0.9-1.699,1c-0.801,0.2-1.6,0.3-2.301,0.5C27.3,16.7,26.6,16.9,26,16.9
			C25.201,17,24.5,17.1,23.701,17.2c-1,0.1-2,0.199-3,0.3c-0.201,0-0.4,0-0.5,0c-0.5,0-1,0.1-1.4,0.1C18.4,17.7,18,17.6,17.6,17.7
			c-0.6,0-1.1,0-1.7,0.1c-0.7,0-1.4,0-2.1,0c-0.5,0-0.9,0-1.4,0c-0.8,0-1.5,0-2.3,0c-0.4,0-0.8-0.2-1.1-0.5
			c-0.5-0.5-0.7-1.2-0.8-1.8c0-0.601,0-1.2,0.2-1.8c0.2-0.5,0.5-0.9,0.9-1.2c0.2-0.101,0.5-0.2,0.7-0.2c2.2,0,4.4,0,6.5,0
			c1.3,0,2.5-0.1,3.8-0.1c1-0.101,2.1-0.101,3.1-0.2c0.7,0,1.4-0.2,2.1-0.2c0.5-0.1,1.101-0.1,1.601-0.2C28.1,11.4,29,11.2,30,11.1
			C30.5,10.8,30.9,10.7,31.4,10.6z"/>
		<path d="M31.5,21.1c0.201-0.1,0.5,0,0.701,0.101C32.4,21.3,32.5,21.6,32.6,21.8c0.101,0.3,0.101,0.6,0.2,0.9
			c0.1,0.5,0,0.899-0.1,1.399C32.6,24.6,32.4,25.2,32.1,25.6c-0.3,0.4-0.601,0.601-1,0.8C30.701,26.6,30.3,26.6,30,26.7
			C29.4,26.9,28.701,26.9,28.1,27.1c-0.399,0.101-0.899,0.2-1.3,0.2c-0.5,0.1-1,0.1-1.5,0.2C24.5,27.6,23.8,27.7,23,27.8
			C22.3,27.9,21.5,27.9,20.8,28C20,27.9,19.5,28,19,28C18.1,28.1,17.1,28.1,16.2,28.1c-0.5,0-1,0-1.5,0c-0.6,0-1.3,0-1.9,0
			c-0.9,0-1.7,0-2.6,0c-0.5,0-1-0.2-1.4-0.6C8.4,27,8.1,26.4,8.1,25.8c-0.1-0.7,0-1.4,0.3-2c0.2-0.4,0.5-0.8,1-1.1
			c0.3-0.2,0.7-0.2,1-0.101c0.7,0,1.5,0,2.2,0c1.5,0,3,0,4.5,0c0.5,0,0.899,0,1.399,0c0.601,0,1.301-0.1,1.9-0.1
			c0.9-0.101,1.801-0.101,2.7-0.2c0.8,0,1.601-0.2,2.3-0.3c0.7-0.101,1.301-0.101,2-0.3c0.5-0.101,1-0.2,1.6-0.301
			C29.6,21.3,30.201,21.2,30.701,21C31,21.2,31.201,21.1,31.5,21.1z"/>
		<path d="M31.6,31.6c0.3,0,0.601,0.101,0.7,0.3c0.3,0.4,0.3,0.801,0.4,1.301c0.1,0.5,0,1.1-0.101,1.6c-0.101,0.6-0.3,1.1-0.7,1.6
			C31.701,36.7,31.4,36.8,31.1,37s-0.7,0.2-1,0.3c-0.899,0.2-1.8,0.3-2.7,0.5c-0.8,0.1-1.5,0.2-2.3,0.3c-0.7,0.101-1.5,0.2-2.2,0.3
			c-0.9,0.101-1.8,0.2-2.699,0.2c-0.4,0-0.801,0-1.201,0.101c-0.799,0-1.7,0.1-2.5,0.1c-0.9,0-1.8,0.1-2.7,0.1c-0.6,0-1.1,0-1.7,0
			c-0.3,0-0.7,0-1,0c-0.3,0-0.6,0-0.9,0c-0.5,0.101-1-0.1-1.4-0.5C8.4,38,8.1,37.4,8,36.9C8,36,8,35.2,8.3,34.6
			c0.2-0.399,0.4-0.8,0.7-1S9.7,33.2,10,33.2c0.7,0,1.4,0,2.1,0c0.5,0,1.1,0,1.6,0c1.2,0,2.4,0,3.6,0c0.6,0,1.2,0,1.8-0.101
			c0.399,0,0.899,0,1.3,0c1.1-0.1,2.2-0.1,3.2-0.2c0.899-0.1,1.8-0.199,2.7-0.3c0.699-0.1,1.4-0.2,2.1-0.399
			c0.5-0.101,1-0.2,1.5-0.301C30.5,31.8,31,31.7,31.6,31.6z"/>
	</g>
</g>
<g id="Layer_2">
	<g>
		<rect x="2.367" y="8.799" fill="#FFFFFF" width="29.566" height="5.834"/>
		<rect x="2.367" y="18.633" fill="#FFFFFF" width="29.566" height="5.834"/>
		<rect x="2.367" y="28.467" fill="#FFFFFF" width="29.566" height="5.834"/>
	</g>
</g>
</svg>
